<svg width="512" height="512" viewBox="0 0 512 512" fill="none" xmlns="http://www.w3.org/2000/svg">
<path d="M72 24H440C466.51 24 488 45.4903 488 72V434C488 460.51 466.51 482 440 482H72C45.4903 482 24 460.51 24 434V72C24 45.4903 45.4903 24 72 24Z" stroke="black" stroke-width="48"/>
<path d="M72 24H440C466.51 24 488 45.4903 488 72V98C488 124.51 466.51 146 440 146H72C45.4903 146 24 124.51 24 98V72C24 45.4903 45.4903 24 72 24Z" stroke="black" stroke-width="48"/>
<path d="M72 146H440C466.51 146 488 167.49 488 194V434C488 460.51 466.51 482 440 482H72C45.4903 482 24 460.51 24 434V194C24 167.49 45.4903 146 72 146Z" stroke="black" stroke-width="48"/>
<path d="M112 394C112 380.745 122.745 370 136 370V370C149.255 370 160 380.745 160 394V394C160 407.255 149.255 418 136 418V418C122.745 418 112 407.255 112 394V394Z" fill="black"/>
<path d="M192 394C192 380.745 202.745 370 216 370V370C229.255 370 240 380.745 240 394V394C240 407.255 229.255 418 216 418V418C202.745 418 192 407.255 192 394V394Z" fill="black"/>
<path d="M112 314C112 300.745 122.745 290 136 290V290C149.255 290 160 300.745 160 314V314C160 327.255 149.255 338 136 338V338C122.745 338 112 327.255 112 314V314Z" fill="black"/>
<path d="M192 314C192 300.745 202.745 290 216 290V290C229.255 290 240 300.745 240 314V314C240 327.255 229.255 338 216 338V338C202.745 338 192 327.255 192 314V314Z" fill="black"/>
<path d="M352 314C352 300.745 362.745 290 376 290V290C389.255 290 400 300.745 400 314V314C400 327.255 389.255 338 376 338V338C362.745 338 352 327.255 352 314V314Z" fill="black"/>
<path d="M272 314C272 300.745 282.745 290 296 290V290C309.255 290 320 300.745 320 314V314C320 327.255 309.255 338 296 338V338C282.745 338 272 327.255 272 314V314Z" fill="black"/>
<path d="M112 234C112 220.745 122.745 210 136 210V210C149.255 210 160 220.745 160 234V234C160 247.255 149.255 258 136 258V258C122.745 258 112 247.255 112 234V234Z" fill="black"/>
<path d="M192 234C192 220.745 202.745 210 216 210V210C229.255 210 240 220.745 240 234V234C240 247.255 229.255 258 216 258V258C202.745 258 192 247.255 192 234V234Z" fill="black"/>
<path d="M352 234C352 220.745 362.745 210 376 210V210C389.255 210 400 220.745 400 234V234C400 247.255 389.255 258 376 258V258C362.745 258 352 247.255 352 234V234Z" fill="black"/>
<path d="M272 234C272 220.745 282.745 210 296 210V210C309.255 210 320 220.745 320 234V234C320 247.255 309.255 258 296 258V258C282.745 258 272 247.255 272 234V234Z" fill="black"/>
</svg>
