<svg width="512" height="512" viewBox="0 0 512 512" fill="none" xmlns="http://www.w3.org/2000/svg">
<path d="M300.167 152.795L431.459 380.2C451.089 414.2 426.552 456.7 387.292 456.7H124.708C85.4477 456.7 60.9103 414.2 80.5402 380.2L211.833 152.795C231.462 118.795 280.537 118.795 300.167 152.795Z" stroke="black" stroke-width="42"/>
<path d="M232 389.705C232 376.45 242.745 365.705 256 365.705V365.705C269.255 365.705 280 376.45 280 389.705V389.705C280 402.96 269.255 413.705 256 413.705V413.705C242.745 413.705 232 402.96 232 389.705V389.705Z" fill="black"/>
<path d="M232 213.71C232 200.455 242.745 189.71 256 189.71V189.71C269.255 189.71 280 200.455 280 213.71V309.71C280 322.965 269.255 333.71 256 333.71V333.71C242.745 333.71 232 322.965 232 309.71V213.71Z" fill="black"/>
</svg>
