<svg width="18" height="16" viewBox="0 0 18 16" fill="none" xmlns="http://www.w3.org/2000/svg">
    <path fill-rule="evenodd" clip-rule="evenodd" d="M1.54824 8.62956C1.22313 8.27272 1.22313 7.72727 1.54824 7.37044C6.25019 2.20985 11.7498 2.20985 16.4518 7.37044C16.7769 7.72727 16.7769 8.27273 16.4518 8.62956C11.7498 13.7901 6.25019 13.7901 1.54824 8.62956ZM1.79212 8.62547C1.4693 8.27091 1.4693 7.72909 1.79212 7.37453C6.26798 2.45849 11.732 2.45849 16.2079 7.37453C16.5307 7.72909 16.5307 8.27091 16.2079 8.62547C11.732 13.5415 6.26798 13.5415 1.79212 8.62547Z" fill="black" stroke="black"/>
    <path fill-rule="evenodd" clip-rule="evenodd" d="M12.75 8C12.75 10.0711 11.0711 11.75 9 11.75C6.92893 11.75 5.25 10.0711 5.25 8C5.25 5.92893 6.92893 4.25 9 4.25C11.0711 4.25 12.75 5.92893 12.75 8ZM9 11.5C10.933 11.5 12.5 9.933 12.5 8C12.5 6.067 10.933 4.5 9 4.5C7.067 4.5 5.5 6.067 5.5 8C5.5 9.933 7.067 11.5 9 11.5Z" fill="black" stroke="black"/>
    <path fill-rule="evenodd" clip-rule="evenodd" d="M1.79212 8.62547C1.4693 8.27091 1.4693 7.72909 1.79212 7.37453C6.26798 2.45849 11.732 2.45849 16.2079 7.37453C16.5307 7.72909 16.5307 8.27091 16.2079 8.62547C11.732 13.5415 6.26798 13.5415 1.79212 8.62547ZM9 11.75C11.0711 11.75 12.75 10.0711 12.75 8C12.75 5.92893 11.0711 4.25 9 4.25C6.92893 4.25 5.25 5.92893 5.25 8C5.25 10.0711 6.92893 11.75 9 11.75Z" fill="black" stroke="black"/>
</svg>
