<svg width="16" height="16" viewBox="0 0 16 16" fill="none" xmlns="http://www.w3.org/2000/svg">
<path fill-rule="evenodd" clip-rule="evenodd" d="M1.12476 9.23258C0.440455 8.55151 0.440455 7.44849 1.12476 6.76742C5.50202 2.41086 10.498 2.41086 14.8752 6.76742C15.5595 7.44849 15.5595 8.55151 14.8752 9.23258C10.498 13.5891 5.50202 13.5891 1.12476 9.23258ZM1.36446 9.22214C0.682228 8.54816 0.682228 7.45184 1.36446 6.77786C5.53539 2.65738 10.4646 2.65738 14.6355 6.77786C15.3178 7.45184 15.3178 8.54816 14.6355 9.22214C10.4646 13.3426 5.53539 13.3426 1.36446 9.22214Z" fill="black" stroke="black"/>
<path fill-rule="evenodd" clip-rule="evenodd" d="M11.75 8C11.75 10.0711 10.0711 11.75 8 11.75C5.92893 11.75 4.25 10.0711 4.25 8C4.25 5.92893 5.92893 4.25 8 4.25C10.0711 4.25 11.75 5.92893 11.75 8ZM8 11.5C9.933 11.5 11.5 9.933 11.5 8C11.5 6.067 9.933 4.5 8 4.5C6.067 4.5 4.5 6.067 4.5 8C4.5 9.933 6.067 11.5 8 11.5Z" fill="black" stroke="black"/>
<path fill-rule="evenodd" clip-rule="evenodd" d="M1.36446 9.22214C0.682228 8.54816 0.682228 7.45184 1.36446 6.77786C5.53539 2.65738 10.4646 2.65738 14.6355 6.77786C15.3178 7.45184 15.3178 8.54816 14.6355 9.22214C10.4646 13.3426 5.53539 13.3426 1.36446 9.22214ZM8 11.75C10.0711 11.75 11.75 10.0711 11.75 8C11.75 5.92893 10.0711 4.25 8 4.25C5.92893 4.25 4.25 5.92893 4.25 8C4.25 10.0711 5.92893 11.75 8 11.75Z" fill="black" stroke="black"/>
</svg>
