<svg width="18" height="16" viewBox="0 0 18 16" fill="none" xmlns="http://www.w3.org/2000/svg">
<path fill-rule="evenodd" clip-rule="evenodd" d="M1 8C6 2 12 2 17 8C12 14 6 14 1 8ZM1.25 8C6 2.25 12 2.25 16.75 8C12 13.75 6 13.75 1.25 8Z" fill="black" stroke="black"/>
<path fill-rule="evenodd" clip-rule="evenodd" d="M12.75 8C12.75 10.0711 11.0711 11.75 9 11.75C6.92893 11.75 5.25 10.0711 5.25 8C5.25 5.92893 6.92893 4.25 9 4.25C11.0711 4.25 12.75 5.92893 12.75 8ZM9 11.5C10.933 11.5 12.5 9.933 12.5 8C12.5 6.067 10.933 4.5 9 4.5C7.067 4.5 5.5 6.067 5.5 8C5.5 9.933 7.067 11.5 9 11.5Z" fill="black" stroke="black"/>
<path fill-rule="evenodd" clip-rule="evenodd" d="M1.25 8C6 2.25 12 2.25 16.75 8C12 13.75 6 13.75 1.25 8ZM9 11.75C11.0711 11.75 12.75 10.0711 12.75 8C12.75 5.92893 11.0711 4.25 9 4.25C6.92893 4.25 5.25 5.92893 5.25 8C5.25 10.0711 6.92893 11.75 9 11.75Z" fill="black" stroke="black"/>
</svg>
