<svg width="18" height="18" viewBox="0 0 18 18" fill="none" xmlns="http://www.w3.org/2000/svg">
    <path fill-rule="evenodd" clip-rule="evenodd" d="M17 9C17 13.4183 13.4183 17 9 17C7.03369 17 5.23306 16.2906 3.8401 15.1138C3.28277 14.6429 2.37944 14.7411 2.05315 15.3937L1.2809 16.9382C1.26196 16.9761 1.22325 17 1.1809 17V17C1.09779 17 1.04373 16.9125 1.0809 16.8382L2.32313 14.3537C2.49265 14.0147 2.45129 13.6118 2.24764 13.2921C1.45768 12.0519 1 10.5794 1 9C1 4.58172 4.58172 1 9 1H16.8745C16.9438 1 17 1.05619 17 1.12549V1.12549C17 1.1948 16.9438 1.25099 16.8745 1.25099H16.3264C15.5347 1.25099 14.8761 3.51401 15.3572 4.14278C16.3877 5.4895 17 7.17325 17 9ZM9.125 15.7331C9.125 16.2915 9.58489 16.7484 10.1374 16.6671C13.8784 16.1169 16.75 12.8938 16.75 9C16.75 8.95826 16.7497 8.91659 16.749 8.875C16.6883 5.03738 13.8383 1.87717 10.1374 1.33287C9.58487 1.25161 9.125 1.70846 9.125 2.26693V7.875C9.125 8.42728 9.57272 8.875 10.125 8.875H12.875C12.944 8.875 13 8.93096 13 9V9C13 9.06904 12.944 9.125 12.875 9.125H10.125C9.57272 9.125 9.125 9.57272 9.125 10.125V15.7331ZM7.875 9.125C8.42728 9.125 8.875 9.57272 8.875 10.125V15.7331C8.875 16.2915 8.41544 16.7484 7.86291 16.6672C6.05858 16.4019 4.45647 15.5148 3.28123 14.2306C3.02143 13.9467 2.98483 13.5303 3.15693 13.1861L4.91111 9.67779C5.0805 9.339 5.42676 9.125 5.80553 9.125H7.875ZM6.03611 7.42779C5.70366 8.09269 6.18715 8.875 6.93053 8.875H7.875C8.42728 8.875 8.875 8.42728 8.875 7.875V5.98607C8.875 4.93084 7.45248 4.59503 6.98057 5.53886L6.03611 7.42779ZM1.25 9C1.25 10.112 1.48421 11.1693 1.90598 12.1253C2.20876 12.8116 3.12595 12.7481 3.4614 12.0772L8.8745 1.251C4.65217 1.31803 1.25 4.7617 1.25 9Z" fill="black"/>
    <path d="M8.875 1.25099L8.8745 1.251M8.8745 1.251C4.65217 1.31803 1.25 4.7617 1.25 9C1.25 10.112 1.48421 11.1693 1.90598 12.1253C2.20876 12.8116 3.12595 12.7481 3.4614 12.0772L8.8745 1.251ZM17 9C17 13.4183 13.4183 17 9 17C7.03369 17 5.23306 16.2906 3.8401 15.1138C3.28277 14.6429 2.37944 14.7411 2.05315 15.3937L1.2809 16.9382C1.26196 16.9761 1.22325 17 1.1809 17V17C1.09779 17 1.04373 16.9125 1.0809 16.8382L2.32313 14.3537C2.49265 14.0147 2.45129 13.6118 2.24764 13.2921C1.45768 12.0519 1 10.5794 1 9C1 4.58172 4.58172 1 9 1H16.8745C16.9438 1 17 1.05619 17 1.12549V1.12549C17 1.1948 16.9438 1.25099 16.8745 1.25099H16.3264C15.5347 1.25099 14.8761 3.51401 15.3572 4.14278C16.3877 5.4895 17 7.17325 17 9ZM16.75 9C16.75 12.8938 13.8784 16.1169 10.1374 16.6671C9.58489 16.7484 9.125 16.2915 9.125 15.7331V10.125C9.125 9.57272 9.57272 9.125 10.125 9.125H12.875C12.944 9.125 13 9.06904 13 9V9C13 8.93096 12.944 8.875 12.875 8.875H10.125C9.57272 8.875 9.125 8.42728 9.125 7.875V2.26693C9.125 1.70846 9.58487 1.25161 10.1374 1.33287C13.8383 1.87717 16.6883 5.03738 16.749 8.875C16.7497 8.91659 16.75 8.95826 16.75 9ZM3.28123 14.2306C4.45647 15.5148 6.05858 16.4019 7.86291 16.6672C8.41544 16.7484 8.875 16.2915 8.875 15.7331V10.125C8.875 9.57272 8.42728 9.125 7.875 9.125H5.80553C5.42676 9.125 5.0805 9.339 4.91111 9.67779L3.15693 13.1861C2.98483 13.5303 3.02143 13.9467 3.28123 14.2306ZM8.875 5.98607V7.875C8.875 8.42728 8.42728 8.875 7.875 8.875H6.93053C6.18715 8.875 5.70366 8.09269 6.03611 7.42779L6.98057 5.53886C7.45248 4.59503 8.875 4.93084 8.875 5.98607Z" stroke="black"/>
</svg>
