<svg width="512" height="513" viewBox="0 0 512 513" fill="none" xmlns="http://www.w3.org/2000/svg">
<path d="M256 232H384V280H256V232Z" fill="black"/>
<path d="M128 232H256V280H128V232Z" fill="black"/>
<path d="M256 24C256 10.7452 266.745 0 280 0H488C501.255 0 512 10.7452 512 24V24C512 37.2548 501.255 48 488 48H280C266.745 48 256 37.2548 256 24V24Z" fill="black"/>
<path d="M256 0H384V48H256V0Z" fill="black"/>
<rect x="232" y="16" width="48" height="480" fill="black"/>
<circle cx="256" cy="256" r="232" stroke="black" stroke-width="48"/>
<path d="M240.315 12.0886L283.209 33.6335L42.8931 512.071L-1.72196e-05 490.527L240.315 12.0886Z" fill="black"/>
</svg>
