<svg width="18" height="18" viewBox="0 0 18 18" fill="none" xmlns="http://www.w3.org/2000/svg">
<path fill-rule="evenodd" clip-rule="evenodd" d="M17 9C17 13.4183 13.4183 17 9 17C6.47198 17 4.21783 15.8274 2.75178 13.9964L1.25 17H1L2.59977 13.8005C1.59525 12.4633 1 10.8012 1 9C1 4.58172 4.58172 1 9 1H17V1.25099H10.9959C14.4484 2.13766 17 5.27085 17 9ZM9.125 16.749C13.3476 16.6822 16.75 13.2385 16.75 9C16.75 8.95826 16.7497 8.91659 16.749 8.875C16.6829 4.69403 13.306 1.3171 9.125 1.25099V8.875H13V9.125H9.125V16.749ZM8.875 9.125V16.749C6.43531 16.7104 4.26939 15.5445 2.87532 13.7494L5.1875 9.125H8.875ZM5.3125 8.875H8.875V1.75L5.3125 8.875ZM1.25 9C1.25 10.6999 1.79727 12.2719 2.72523 13.5495L8.8745 1.251C4.65217 1.31803 1.25 4.7617 1.25 9Z" fill="black"/>
<path d="M8.875 1.25099L8.8745 1.251M8.8745 1.251C4.65217 1.31803 1.25 4.7617 1.25 9C1.25 10.6999 1.79727 12.2719 2.72523 13.5495L8.8745 1.251ZM17 9C17 13.4183 13.4183 17 9 17C6.47198 17 4.21783 15.8274 2.75178 13.9964L1.25 17H1L2.59977 13.8005C1.59525 12.4633 1 10.8012 1 9C1 4.58172 4.58172 1 9 1H17V1.25099H10.9959C14.4484 2.13766 17 5.27085 17 9ZM16.75 9C16.75 13.2385 13.3476 16.6822 9.125 16.749V9.125H13V8.875H9.125V1.25099C13.306 1.3171 16.6829 4.69403 16.749 8.875C16.7497 8.91659 16.75 8.95826 16.75 9ZM8.875 16.749V9.125H5.1875L2.87532 13.7494C4.26939 15.5445 6.43531 16.7104 8.875 16.749ZM8.875 8.875H5.3125L8.875 1.75V8.875Z" stroke="black"/>
</svg>
