<svg width="512" height="512" viewBox="0 0 512 512" fill="none" xmlns="http://www.w3.org/2000/svg">
<path d="M256 256C256 242.745 266.745 232 280 232H360C373.255 232 384 242.745 384 256V256C384 269.255 373.255 280 360 280H280C266.745 280 256 269.255 256 256V256Z" fill="black"/>
<path d="M128 256C128 242.745 138.745 232 152 232H232C245.255 232 256 242.745 256 256V256C256 269.255 245.255 280 232 280H152C138.745 280 128 269.255 128 256V256Z" fill="black"/>
<path d="M256 24C256 10.7452 266.745 0 280 0H488C501.255 0 512 10.7452 512 24V24C512 37.2548 501.255 48 488 48H280C266.745 48 256 37.2548 256 24V24Z" fill="black"/>
<path d="M256 0H384V48H256V0Z" fill="black"/>
<rect x="232" y="16" width="48" height="480" fill="black"/>
<circle cx="256" cy="256" r="232" stroke="black" stroke-width="48"/>
<path d="M229.543 33.5352C235.492 21.6906 249.917 16.9116 261.762 22.8611V22.8611C273.607 28.8105 278.386 43.2354 272.436 55.08L53.6655 490.625C47.7161 502.469 33.2911 507.249 21.4465 501.299V501.299C9.60193 495.35 4.82296 480.925 10.7724 469.08L229.543 33.5352Z" fill="black"/>
</svg>
