<svg width="18" height="18" viewBox="0 0 18 18" fill="none" xmlns="http://www.w3.org/2000/svg">
    <path fill-rule="evenodd" clip-rule="evenodd" d="M17 9C17 13.4183 13.4183 17 9 17C7.33669 17 5.79194 16.4924 4.51221 15.6236C3.58244 14.9924 2.17829 15.1434 1.67572 16.1486L1.2809 16.9382C1.26196 16.9761 1.22325 17 1.1809 17V17C1.09779 17 1.04373 16.9125 1.0809 16.8382L2.15732 14.6854C2.42844 14.1431 2.35744 13.5007 2.05577 12.9749C1.38405 11.8039 1 10.4468 1 9C1 4.58172 4.58172 1 9 1H16.8745C16.9438 1 17 1.05619 17 1.12549V1.12549C17 1.1948 16.9438 1.25099 16.8745 1.25099H16.3264C15.5347 1.25099 14.8761 3.51401 15.3572 4.14278C16.3877 5.4895 17 7.17325 17 9ZM9.125 14.7171C9.125 15.8341 10.0557 16.76 11.1298 16.4537C14.3744 15.5283 16.75 12.5416 16.75 9C16.75 8.95826 16.7497 8.91659 16.749 8.875C16.6939 5.38832 14.3362 2.46081 11.1299 1.54634C10.0558 1.23999 9.125 2.16592 9.125 3.28286V6.9375C9.125 8.00755 9.99245 8.875 11.0625 8.875H12.875C12.944 8.875 13 8.93096 13 9V9C13 9.06904 12.944 9.125 12.875 9.125H11.0625C9.99245 9.125 9.125 9.99245 9.125 11.0625V14.7171ZM6.875 9.125C7.97957 9.125 8.875 10.0204 8.875 11.125V14.7171C8.875 15.8341 7.94458 16.7601 6.87046 16.4538C5.6801 16.1143 4.60669 15.4974 3.72464 14.6775C3.16093 14.1534 3.09434 13.3113 3.43854 12.6229L4.63471 10.2306C4.9735 9.553 5.66602 9.125 6.42357 9.125H6.875ZM6.29715 6.9057C5.84477 7.81046 6.50269 8.875 7.51425 8.875V8.875C8.26577 8.875 8.875 8.26577 8.875 7.51425V7.51425C8.875 6.07835 6.93931 5.62139 6.29715 6.9057V6.9057ZM1.25 9C1.25 9.53432 1.30407 10.056 1.40704 10.5599C1.70741 12.0297 3.52666 11.9467 4.19757 10.6049L8.8745 1.251C4.65217 1.31803 1.25 4.7617 1.25 9Z" fill="black"/>
    <path d="M8.875 1.25099L8.8745 1.251M8.8745 1.251C4.65217 1.31803 1.25 4.7617 1.25 9C1.25 9.53432 1.30407 10.056 1.40704 10.5599C1.70741 12.0297 3.52666 11.9467 4.19757 10.6049L8.8745 1.251ZM17 9C17 13.4183 13.4183 17 9 17C7.33669 17 5.79194 16.4924 4.51221 15.6236C3.58244 14.9924 2.17829 15.1434 1.67572 16.1486L1.2809 16.9382C1.26196 16.9761 1.22325 17 1.1809 17V17C1.09779 17 1.04373 16.9125 1.0809 16.8382L2.15732 14.6854C2.42844 14.1431 2.35744 13.5007 2.05577 12.9749C1.38405 11.8039 1 10.4468 1 9C1 4.58172 4.58172 1 9 1H16.8745C16.9438 1 17 1.05619 17 1.12549V1.12549C17 1.1948 16.9438 1.25099 16.8745 1.25099H16.3264C15.5347 1.25099 14.8761 3.51401 15.3572 4.14278C16.3877 5.4895 17 7.17325 17 9ZM16.75 9C16.75 12.5416 14.3744 15.5283 11.1298 16.4537C10.0557 16.76 9.125 15.8341 9.125 14.7171V11.0625C9.125 9.99245 9.99245 9.125 11.0625 9.125H12.875C12.944 9.125 13 9.06904 13 9V9C13 8.93096 12.944 8.875 12.875 8.875H11.0625C9.99245 8.875 9.125 8.00755 9.125 6.9375V3.28286C9.125 2.16592 10.0558 1.23999 11.1299 1.54634C14.3362 2.46081 16.6939 5.38832 16.749 8.875C16.7497 8.91659 16.75 8.95826 16.75 9ZM3.72464 14.6775C4.60669 15.4974 5.6801 16.1143 6.87046 16.4538C7.94458 16.7601 8.875 15.8341 8.875 14.7171V11.125C8.875 10.0204 7.97957 9.125 6.875 9.125H6.42357C5.66602 9.125 4.9735 9.553 4.63471 10.2306L3.43854 12.6229C3.09434 13.3113 3.16093 14.1534 3.72464 14.6775ZM8.875 7.51425V7.51425C8.875 8.26577 8.26577 8.875 7.51425 8.875V8.875C6.50269 8.875 5.84477 7.81046 6.29715 6.9057V6.9057C6.93931 5.62139 8.875 6.07835 8.875 7.51425Z" stroke="black"/>
</svg>
